<svg width="90" height="29" viewBox="0 0 90 29" fill="none" xmlns="http://www.w3.org/2000/svg">
<rect width="90" height="28.8" rx="6" fill="#F4F5F7"/>
<path d="M22.2505 13.5871C22.2234 11.6353 23.8499 10.6865 23.9312 10.6322C23.0095 9.30393 21.5999 9.11417 21.0848 9.08706C19.892 8.95152 18.7264 9.79188 18.13 9.79188C17.5065 9.79188 16.5577 9.08706 15.5547 9.11417C14.2535 9.14128 13.0336 9.90031 12.3559 11.066C10.9734 13.4515 12.0035 16.9485 13.3318 18.8732C13.9824 19.822 14.7685 20.8792 15.7715 20.825C16.7474 20.7708 17.127 20.2015 18.3197 20.2015C19.5125 20.2015 19.8378 20.825 20.8679 20.7979C21.9252 20.7708 22.6029 19.8491 23.2264 18.9003C23.9854 17.816 24.2836 16.7587 24.3107 16.7045C24.3107 16.7045 22.2776 15.9184 22.2505 13.5871Z" fill="#383838"/>
<path d="M20.3015 7.81331C20.8436 7.1356 21.1961 6.24102 21.0876 5.31934C20.3286 5.34644 19.3527 5.8615 18.8105 6.51211C18.3226 7.08138 17.8888 8.03018 17.9973 8.89765C18.8647 8.97897 19.7593 8.46391 20.3015 7.81331Z" fill="#383838"/>
<path d="M37.2163 19.6867H35.8338L35.0748 17.3283H32.4452L31.7404 19.6867H30.4121L33.0145 11.6084H34.6139L37.2163 19.6867ZM34.8579 16.3253L34.1802 14.2108C34.0989 13.9939 33.9633 13.4789 33.7736 12.6927H33.7464C33.6651 13.0451 33.5296 13.5331 33.3669 14.2108L32.6892 16.3253H34.8579Z" fill="#383838"/>
<path d="M43.8847 16.7029C43.8847 17.7059 43.6136 18.4649 43.0714 19.0613C42.5834 19.5764 41.9871 19.8203 41.2822 19.8203C40.5232 19.8203 39.9539 19.5493 39.6286 19.0071H39.6015V22.0703H38.3003V15.7812C38.3003 15.1577 38.2732 14.5342 38.2461 13.8565H39.3847L39.466 14.7782H39.4931C39.9268 14.0733 40.5774 13.748 41.4449 13.748C42.1226 13.748 42.6919 14.0191 43.1527 14.5613C43.6678 15.1035 43.8847 15.8083 43.8847 16.7029ZM42.5563 16.7571C42.5563 16.1878 42.4208 15.727 42.1768 15.3474C41.9057 14.9679 41.5262 14.7782 41.0654 14.7782C40.7401 14.7782 40.4419 14.8866 40.1979 15.1035C39.9268 15.3203 39.7642 15.5914 39.6828 15.9438C39.6557 16.1065 39.6286 16.242 39.6286 16.3505V17.3264C39.6286 17.7601 39.7642 18.1125 40.0081 18.4107C40.2792 18.7089 40.6045 18.8444 41.0112 18.8444C41.4991 18.8444 41.8786 18.6547 42.1497 18.2752C42.4208 17.8685 42.5563 17.3535 42.5563 16.7571Z" fill="#383838"/>
<path d="M50.5819 16.7029C50.5819 17.7059 50.3108 18.4649 49.7687 19.0613C49.2807 19.5764 48.6843 19.8203 47.9795 19.8203C47.2205 19.8203 46.6512 19.5493 46.3259 19.0071H46.2988V22.0703H44.9976V15.7812C44.9976 15.1577 44.9705 14.5342 44.9434 13.8565H46.0819L46.1632 14.7782H46.1903C46.6241 14.0733 47.2747 13.748 48.1422 13.748C48.8199 13.748 49.3891 14.0191 49.85 14.5613C50.3379 15.1035 50.5819 15.8083 50.5819 16.7029ZM49.2536 16.7571C49.2536 16.1878 49.1181 15.727 48.8741 15.3474C48.603 14.9679 48.2235 14.7782 47.7626 14.7782C47.4373 14.7782 47.1663 14.8866 46.8952 15.1035C46.6241 15.3203 46.4614 15.5914 46.3801 15.9438C46.3259 16.1065 46.3259 16.242 46.3259 16.3505V17.3264C46.3259 17.7601 46.4614 18.1125 46.7054 18.4107C46.9765 18.7089 47.3018 18.8444 47.7084 18.8444C48.1964 18.8444 48.5759 18.6547 48.847 18.2752C49.1181 17.8685 49.2536 17.3535 49.2536 16.7571Z" fill="#383838"/>
<path d="M58.0641 17.4084C58.0641 18.0861 57.8201 18.6554 57.3593 19.0891C56.8442 19.55 56.1123 19.794 55.1635 19.794C54.2961 19.794 53.5912 19.6313 53.0762 19.2789L53.3744 18.1946C53.9436 18.547 54.5671 18.7096 55.2448 18.7096C55.7328 18.7096 56.1123 18.6012 56.3834 18.3843C56.6545 18.1675 56.79 17.8693 56.79 17.4898C56.79 17.1644 56.6816 16.8934 56.4647 16.6494C56.2479 16.4325 55.8683 16.2157 55.3533 16.0259C53.9436 15.5108 53.2388 14.7247 53.2388 13.7217C53.2388 13.0711 53.4828 12.5018 53.9707 12.0952C54.4587 11.6614 55.1364 11.4717 55.9497 11.4717C56.6816 11.4717 57.3051 11.6072 57.793 11.8512L57.4677 12.9084C57.0069 12.6645 56.4918 12.5289 55.9226 12.5289C55.4617 12.5289 55.1093 12.6373 54.8653 12.8542C54.6485 13.044 54.54 13.2879 54.54 13.5861C54.54 13.9114 54.6756 14.1825 54.9195 14.3723C55.1364 14.562 55.5159 14.7789 56.0852 14.9958C56.79 15.2669 57.278 15.5922 57.6304 15.9717C57.9015 16.4054 58.0641 16.8663 58.0641 17.4084Z" fill="#383838"/>
<path d="M62.3442 14.8336H60.9074V17.6528C60.9074 18.3576 61.1514 18.7372 61.6665 18.7372C61.8833 18.7372 62.1002 18.7101 62.2357 18.683L62.2629 19.6589C62.0189 19.7673 61.6665 19.7944 61.2598 19.7944C60.7448 19.7944 60.3381 19.6317 60.0671 19.3336C59.7689 19.0354 59.6333 18.4932 59.6333 17.7613V14.8336H58.793V13.8576H59.6333V12.8004L60.9074 12.4209V13.8576H62.3442V14.8336Z" fill="#383838"/>
<path d="M68.7709 16.73C68.7709 17.6246 68.5269 18.3565 68.0119 18.9258C67.4697 19.5221 66.7649 19.8203 65.8703 19.8203C65.0028 19.8203 64.3251 19.5493 63.8372 18.98C63.3221 18.4107 63.0781 17.7059 63.0781 16.8384C63.0781 15.9438 63.3492 15.1848 63.8643 14.6155C64.3793 14.0462 65.0841 13.748 65.9787 13.748C66.8191 13.748 67.5239 14.0191 68.039 14.5884C68.5269 15.1577 68.7709 15.8625 68.7709 16.73ZM67.4155 16.7571C67.4155 16.2149 67.307 15.7541 67.0631 15.3746C66.792 14.9137 66.4125 14.6697 65.8974 14.6697C65.3823 14.6697 64.9757 14.9137 64.7046 15.3746C64.4607 15.7541 64.3522 16.2149 64.3522 16.7842C64.3522 17.3264 64.4607 17.7872 64.7046 18.1667C64.9757 18.6276 65.3823 18.8715 65.8703 18.8715C66.3582 18.8715 66.7378 18.6276 67.036 18.1667C67.307 17.7601 67.4155 17.2993 67.4155 16.7571Z" fill="#383838"/>
<path d="M72.9727 14.9968C72.8372 14.9696 72.7016 14.9696 72.5661 14.9696C72.1052 14.9696 71.7528 15.1323 71.5089 15.4847C71.292 15.7829 71.1836 16.1624 71.1836 16.6233V19.6865H69.8823V15.7016C69.8823 15.0239 69.8552 14.4275 69.8281 13.8582H70.9667L71.0209 14.9696H71.048C71.1836 14.5901 71.4004 14.2919 71.6986 14.048C71.9968 13.8311 72.295 13.7227 72.6203 13.7227C72.7287 13.7227 72.8372 13.7227 72.9456 13.7498V14.9968H72.9727Z" fill="#383838"/>
<path d="M78.7463 16.486C78.7463 16.73 78.7192 16.9197 78.6921 17.0824H74.8156C74.8427 17.6517 75.0053 18.0854 75.3849 18.4107C75.7102 18.6818 76.1439 18.8173 76.659 18.8173C77.2282 18.8173 77.7433 18.736 78.2312 18.5462L78.421 19.4408C77.8788 19.6848 77.2282 19.7932 76.4692 19.7932C75.5746 19.7932 74.8698 19.5221 74.3547 19.0071C73.8397 18.4649 73.5957 17.7601 73.5957 16.8655C73.5957 15.998 73.8397 15.2661 74.3276 14.6697C74.8427 14.0462 75.5204 13.748 76.3608 13.748C77.2011 13.748 77.8246 14.0462 78.2583 14.6697C78.5836 15.1577 78.7463 15.7812 78.7463 16.486ZM77.4993 16.1607C77.4993 15.7812 77.418 15.4559 77.2553 15.1577C77.0385 14.8053 76.6861 14.6155 76.2252 14.6155C75.7915 14.6155 75.4662 14.8053 75.1951 15.1306C74.9782 15.4017 74.8427 15.7541 74.8156 16.1336L77.4993 16.1607Z" fill="#383838"/>
<path d="M33.0945 7.67698C33.0945 7.89385 33.0674 8.0565 32.9861 8.24626C32.9319 8.40891 32.8234 8.54445 32.715 8.67999C32.6066 8.78843 32.4439 8.89686 32.2813 8.95108C32.1186 9.00529 31.9289 9.05951 31.7391 9.05951H30.709V6.32156H31.7391C31.9289 6.32156 32.1186 6.34867 32.2813 6.42999C32.4439 6.48421 32.5795 6.59264 32.715 6.70108C32.8234 6.80951 32.9319 6.97216 32.9861 7.13481C33.0674 7.29746 33.0945 7.46011 33.0945 7.67698ZM32.715 7.67698C32.715 7.51433 32.6879 7.35168 32.6337 7.21614C32.5795 7.0806 32.5253 6.97216 32.4439 6.89084C32.3626 6.80951 32.2542 6.72819 32.1457 6.67397C32.0373 6.61975 31.9018 6.59264 31.7391 6.59264H31.0885V8.7071H31.7391C31.8746 8.7071 32.0102 8.67999 32.1457 8.62578C32.2542 8.57156 32.3626 8.51734 32.4439 8.40891C32.5253 8.32758 32.5795 8.21915 32.6337 8.08361C32.6879 7.94807 32.715 7.83963 32.715 7.67698ZM33.9078 7.1077V9.0324H33.5825V7.1077H33.9078ZM33.9891 6.51132C33.9891 6.53843 33.9891 6.56554 33.962 6.59264C33.962 6.61975 33.9349 6.64686 33.9078 6.67397C33.8807 6.70108 33.8536 6.70108 33.8265 6.72819C33.7993 6.72819 33.7722 6.75529 33.7451 6.75529C33.718 6.75529 33.6909 6.75529 33.6638 6.72819C33.6367 6.72819 33.6096 6.70108 33.5825 6.67397C33.5554 6.64686 33.5554 6.61975 33.5283 6.59264C33.5283 6.56554 33.5012 6.53843 33.5012 6.51132C33.5012 6.48421 33.5012 6.4571 33.5283 6.42999C33.5283 6.40288 33.5554 6.37578 33.5825 6.34867C33.6096 6.32156 33.6367 6.32156 33.6638 6.29445C33.6909 6.29445 33.718 6.26734 33.7451 6.26734C33.7722 6.26734 33.7993 6.26734 33.8265 6.29445C33.8536 6.29445 33.8807 6.32156 33.9078 6.34867C33.9349 6.37578 33.9349 6.40288 33.962 6.42999C33.9891 6.42999 33.9891 6.48421 33.9891 6.51132ZM35.6156 7.43301C35.5885 7.46011 35.5885 7.48722 35.5343 7.48722C35.5072 7.48722 35.5072 7.48722 35.4801 7.46011C35.453 7.43301 35.4259 7.43301 35.3987 7.4059C35.3716 7.37879 35.3174 7.37879 35.2632 7.35168C35.209 7.32457 35.1548 7.32457 35.1006 7.32457C35.0463 7.32457 34.9921 7.32457 34.9379 7.35168C34.8837 7.37879 34.8566 7.37879 34.8295 7.4059C34.8024 7.43301 34.7753 7.46011 34.7481 7.48722C34.721 7.51433 34.721 7.56855 34.721 7.59566C34.721 7.64987 34.7481 7.67698 34.7752 7.7312C34.8024 7.75831 34.8295 7.78542 34.8837 7.81252C34.9379 7.83963 34.9921 7.86674 35.0463 7.86674C35.1006 7.89385 35.1548 7.89385 35.2361 7.92096C35.2903 7.94807 35.3716 7.97517 35.4259 8.00228C35.4801 8.02939 35.5343 8.0565 35.5885 8.11072C35.6427 8.13782 35.6698 8.19204 35.6969 8.24626C35.724 8.30048 35.7512 8.35469 35.7512 8.43602C35.7512 8.51734 35.724 8.59867 35.6969 8.67999C35.6698 8.76132 35.6156 8.81554 35.5614 8.86975C35.5072 8.92397 35.4259 8.97819 35.3445 9.00529C35.2632 9.0324 35.1548 9.05951 35.0463 9.05951C34.9108 9.05951 34.8024 9.0324 34.6939 9.00529C34.5855 8.95108 34.5042 8.89686 34.4228 8.84264L34.5042 8.7071C34.5042 8.67999 34.5313 8.67999 34.5313 8.67999C34.5313 8.67999 34.5584 8.67999 34.5855 8.67999C34.6126 8.67999 34.6397 8.67999 34.6668 8.7071C34.6939 8.73421 34.721 8.73421 34.7481 8.76132C34.7753 8.78843 34.8295 8.81554 34.8837 8.81554C34.9379 8.84264 34.9921 8.84264 35.0734 8.84264C35.1277 8.84264 35.209 8.84264 35.2361 8.81554C35.2903 8.78843 35.3174 8.76132 35.3716 8.73421C35.3987 8.7071 35.4259 8.67999 35.453 8.62578C35.4801 8.59867 35.4801 8.54445 35.4801 8.51734C35.4801 8.46313 35.453 8.40891 35.4259 8.3818C35.3987 8.35469 35.3716 8.32758 35.3174 8.30048C35.2632 8.27337 35.209 8.24626 35.1548 8.24626C35.1006 8.21915 35.0463 8.21915 34.965 8.19204C34.9108 8.16493 34.8295 8.13782 34.7752 8.11072C34.721 8.08361 34.6668 8.0565 34.6126 8.00228C34.5584 7.97517 34.5313 7.92096 34.5042 7.86674C34.4771 7.81252 34.4499 7.7312 34.4499 7.64987C34.4499 7.56855 34.4771 7.51433 34.5042 7.43301C34.5313 7.35168 34.5855 7.29746 34.6397 7.24325C34.6939 7.18903 34.7753 7.16192 34.8566 7.1077C34.9379 7.0806 35.0463 7.05349 35.1548 7.05349C35.2903 7.05349 35.3987 7.0806 35.5072 7.1077C35.6156 7.13481 35.6969 7.18903 35.7783 7.27035L35.6156 7.43301ZM36.1578 9.68301V7.1077H36.3475C36.4018 7.1077 36.4289 7.13481 36.4289 7.18903L36.456 7.4059C36.5373 7.29746 36.6186 7.21614 36.7271 7.16192C36.8355 7.1077 36.9439 7.0806 37.1066 7.0806C37.215 7.0806 37.3234 7.1077 37.4048 7.13481C37.4861 7.18903 37.5674 7.24325 37.6216 7.32457C37.6759 7.4059 37.7301 7.51433 37.7572 7.62276C37.7843 7.7312 37.8114 7.89385 37.8114 8.0565C37.8114 8.19204 37.7843 8.32758 37.7572 8.46313C37.7301 8.57156 37.6759 8.67999 37.5945 8.78843C37.5132 8.86975 37.4319 8.95108 37.3234 9.00529C37.215 9.05951 37.1066 9.08662 36.971 9.08662C36.8626 9.08662 36.7542 9.05951 36.6728 9.0324C36.5915 9.00529 36.5102 8.92397 36.456 8.86975V9.71011H36.1578V9.68301ZM37.0253 7.35168C36.9168 7.35168 36.8084 7.37879 36.7271 7.43301C36.6457 7.48722 36.5644 7.56855 36.5102 7.64987V8.57156C36.5644 8.65288 36.6457 8.7071 36.6999 8.76132C36.7813 8.78843 36.8626 8.81554 36.9439 8.81554C37.1337 8.81554 37.2692 8.76132 37.3506 8.62578C37.459 8.49023 37.4861 8.32758 37.4861 8.08361C37.4861 7.94807 37.4861 7.83963 37.459 7.75831C37.4319 7.67698 37.4048 7.59566 37.3777 7.54144C37.3234 7.48722 37.2963 7.43301 37.215 7.4059C37.1337 7.37879 37.1066 7.35168 37.0253 7.35168ZM39.0313 7.0806C39.1668 7.0806 39.3024 7.1077 39.4108 7.16192C39.5192 7.21614 39.6277 7.27035 39.709 7.35168C39.7903 7.43301 39.8445 7.54144 39.8987 7.67698C39.953 7.78542 39.953 7.92096 39.953 8.08361C39.953 8.24626 39.9259 8.3818 39.8987 8.49023C39.8445 8.59867 39.7903 8.7071 39.709 8.78843C39.6277 8.86975 39.5463 8.95108 39.4108 8.97819C39.3024 9.0324 39.1668 9.05951 39.0313 9.05951C38.8957 9.05951 38.7602 9.0324 38.6518 8.97819C38.5433 8.92397 38.4349 8.86975 38.3536 8.78843C38.2722 8.7071 38.218 8.59867 38.1638 8.49023C38.1096 8.3818 38.1096 8.21915 38.1096 8.08361C38.1096 7.92096 38.1367 7.78542 38.1638 7.67698C38.218 7.54144 38.2722 7.46011 38.3536 7.35168C38.4349 7.27035 38.5162 7.18903 38.6518 7.16192C38.7602 7.1077 38.8957 7.0806 39.0313 7.0806ZM39.0313 8.78843C39.221 8.78843 39.3566 8.73421 39.465 8.59867C39.5463 8.46313 39.6006 8.30048 39.6006 8.0565C39.6006 7.83963 39.5463 7.64987 39.465 7.51433C39.3837 7.37879 39.221 7.32457 39.0313 7.32457C38.9228 7.32457 38.8415 7.35168 38.7873 7.37879C38.7331 7.4059 38.6518 7.46011 38.5975 7.51433C38.5433 7.56855 38.5162 7.64987 38.4891 7.7312C38.462 7.81252 38.462 7.92096 38.462 8.02939C38.462 8.13782 38.462 8.24626 38.4891 8.32758C38.5162 8.40891 38.5433 8.49023 38.5975 8.54445C38.6518 8.59867 38.706 8.65289 38.7873 8.67999C38.8415 8.78843 38.95 8.78843 39.0313 8.78843ZM40.3596 9.0324V7.1077H40.5493C40.6036 7.1077 40.6307 7.13481 40.6307 7.18903L40.6578 7.4059C40.7391 7.32457 40.8475 7.24325 40.9289 7.18903C41.0373 7.13481 41.1457 7.1077 41.2813 7.1077C41.3897 7.1077 41.471 7.13481 41.5524 7.16192C41.6337 7.18903 41.6879 7.24325 41.7421 7.29746C41.7963 7.35168 41.8506 7.43301 41.8777 7.51433C41.9048 7.59566 41.9319 7.70409 41.9319 7.81252V9.0324H41.6066V7.81252C41.6066 7.67698 41.5795 7.54144 41.4981 7.48722C41.4439 7.4059 41.3355 7.37879 41.2 7.37879C41.0915 7.37879 41.0102 7.4059 40.9289 7.46011C40.8475 7.51433 40.7662 7.56855 40.6849 7.64987V9.0324H40.3596ZM42.8536 7.1077V9.0324H42.5283V7.1077H42.8536ZM42.9349 6.51132C42.9349 6.53843 42.9349 6.56554 42.9078 6.59264C42.9078 6.61975 42.8807 6.64686 42.8536 6.67397C42.8265 6.70108 42.7993 6.70108 42.7722 6.72819C42.7451 6.72819 42.718 6.75529 42.6909 6.75529C42.6638 6.75529 42.6367 6.75529 42.6096 6.72819C42.5825 6.72819 42.5554 6.70108 42.5283 6.67397C42.5012 6.64686 42.5012 6.61975 42.474 6.59264C42.474 6.56554 42.4469 6.53843 42.4469 6.51132C42.4469 6.48421 42.4469 6.4571 42.474 6.42999C42.474 6.40288 42.5012 6.37578 42.5283 6.34867C42.5554 6.32156 42.5825 6.32156 42.6096 6.29445C42.6367 6.29445 42.6638 6.26734 42.6909 6.26734C42.718 6.26734 42.7451 6.26734 42.7722 6.29445C42.7993 6.29445 42.8265 6.32156 42.8536 6.34867C42.8807 6.37578 42.8807 6.40288 42.9078 6.42999C42.9078 6.42999 42.9349 6.48421 42.9349 6.51132ZM43.45 9.0324V6.24023H43.8024V7.37879C43.8837 7.29746 43.965 7.21614 44.0734 7.16192C44.1819 7.1077 44.2903 7.0806 44.4259 7.0806C44.5343 7.0806 44.6427 7.1077 44.724 7.13481C44.8054 7.18903 44.8867 7.24325 44.9409 7.32457C44.9951 7.4059 45.0493 7.51433 45.0765 7.62276C45.1036 7.7312 45.1307 7.89385 45.1307 8.0565C45.1307 8.19204 45.1036 8.32758 45.0765 8.46313C45.0493 8.57156 44.9951 8.67999 44.9138 8.78843C44.8325 8.86975 44.7512 8.95108 44.6427 9.00529C44.5343 9.05951 44.4259 9.08662 44.2903 9.08662C44.1548 9.08662 44.0734 9.05951 43.965 9.00529C43.8837 8.95108 43.8024 8.89686 43.7481 8.81554L43.721 8.97819C43.721 9.0324 43.6939 9.05951 43.6397 9.05951H43.45V9.0324ZM44.3174 7.35168C44.209 7.35168 44.1006 7.37879 44.0192 7.43301C43.9379 7.48722 43.8566 7.56855 43.8024 7.64987V8.57156C43.8566 8.65288 43.9379 8.7071 43.9921 8.76132C44.0734 8.78843 44.1548 8.81554 44.2361 8.81554C44.4259 8.81554 44.5614 8.76132 44.6427 8.62578C44.7512 8.49023 44.7783 8.32758 44.7783 8.08361C44.7783 7.94807 44.7783 7.83963 44.7512 7.75831C44.724 7.67698 44.6969 7.59566 44.6698 7.54144C44.6156 7.48722 44.5885 7.43301 44.5072 7.4059C44.4259 7.37879 44.3987 7.35168 44.3174 7.35168ZM45.9439 6.24023V9.0324H45.5915V6.24023H45.9439ZM47.2993 7.0806C47.4078 7.0806 47.5162 7.1077 47.6246 7.13481C47.7331 7.16192 47.8144 7.21614 47.8686 7.29746C47.9499 7.37879 48.0042 7.46011 48.0313 7.56855C48.0584 7.67698 48.0855 7.78541 48.0855 7.92096C48.0855 7.97517 48.0855 8.00228 48.0584 8.02939C48.0584 8.0565 48.0313 8.0565 48.0042 8.0565H46.7301C46.7301 8.16493 46.7572 8.27337 46.7843 8.3818C46.8114 8.46313 46.8656 8.54445 46.9198 8.59867C46.974 8.65288 47.0283 8.7071 47.1096 8.73421C47.1909 8.76132 47.2722 8.78843 47.3536 8.78843C47.4349 8.78843 47.5162 8.78843 47.5704 8.76132C47.6247 8.73421 47.6789 8.7071 47.7331 8.7071C47.7873 8.7071 47.8144 8.65289 47.8415 8.65289C47.8686 8.62578 47.8957 8.62578 47.9228 8.62578C47.95 8.62578 47.9771 8.62578 47.9771 8.65289L48.0855 8.78843C48.0313 8.84264 48.0042 8.89686 47.9228 8.92397C47.8686 8.95108 47.8144 8.97819 47.7331 9.00529C47.6789 9.0324 47.5975 9.05951 47.5162 9.05951C47.4349 9.05951 47.3807 9.08662 47.2993 9.08662C47.1638 9.08662 47.0554 9.05951 46.9198 9.0324C46.8114 8.97819 46.703 8.92397 46.6216 8.84264C46.5403 8.76132 46.4861 8.65289 46.4319 8.51734C46.3777 8.3818 46.3506 8.24626 46.3506 8.08361C46.3506 7.94807 46.3777 7.81252 46.4048 7.70409C46.459 7.59566 46.5132 7.48722 46.5945 7.4059C46.6759 7.32457 46.7572 7.24325 46.8656 7.21614C47.0283 7.1077 47.1638 7.0806 47.2993 7.0806ZM47.2993 7.32457C47.1367 7.32457 47.0012 7.37879 46.9198 7.46011C46.8385 7.54144 46.7572 7.67698 46.7572 7.83963H47.8144C47.8144 7.75831 47.8144 7.67698 47.7873 7.62276C47.7602 7.56855 47.7331 7.48722 47.706 7.46011C47.6518 7.4059 47.6246 7.37879 47.5433 7.35168C47.462 7.35168 47.3807 7.32457 47.2993 7.32457ZM50.0102 7.0806C50.1186 7.0806 50.2271 7.1077 50.3355 7.13481C50.4439 7.16192 50.5253 7.21614 50.5795 7.29746C50.6608 7.37879 50.715 7.46011 50.7421 7.56855C50.7692 7.67698 50.7963 7.78541 50.7963 7.92096C50.7963 7.97517 50.7963 8.00228 50.7692 8.02939C50.7692 8.0565 50.7421 8.0565 50.715 8.0565H49.4409C49.4409 8.16493 49.468 8.27337 49.4951 8.3818C49.5222 8.46313 49.5765 8.54445 49.6307 8.59867C49.6849 8.65288 49.7391 8.7071 49.8204 8.73421C49.9018 8.76132 49.9831 8.78843 50.0644 8.78843C50.1457 8.78843 50.2271 8.78843 50.2813 8.76132C50.3355 8.73421 50.3897 8.7071 50.4439 8.7071C50.4981 8.67999 50.5253 8.65289 50.5524 8.65289C50.5795 8.62578 50.6066 8.62578 50.6337 8.62578C50.6608 8.62578 50.6879 8.62578 50.6879 8.65289L50.7963 8.78843C50.7421 8.84264 50.715 8.89686 50.6337 8.92397C50.5795 8.95108 50.5253 8.97819 50.4439 9.00529C50.3897 9.0324 50.3084 9.05951 50.2271 9.05951C50.1457 9.05951 50.0915 9.08662 50.0102 9.08662C49.8747 9.08662 49.7662 9.05951 49.6307 9.0324C49.5222 8.97819 49.4138 8.92397 49.3325 8.84264C49.2512 8.76132 49.1969 8.65289 49.1427 8.51734C49.0885 8.3818 49.0614 8.24626 49.0614 8.08361C49.0614 7.94807 49.0885 7.81252 49.1156 7.70409C49.1698 7.59566 49.224 7.48722 49.3054 7.4059C49.3867 7.32457 49.468 7.24325 49.5765 7.21614C49.7662 7.1077 49.8747 7.0806 50.0102 7.0806ZM50.0373 7.32457C49.8746 7.32457 49.7391 7.37879 49.6578 7.46011C49.5765 7.54144 49.4951 7.67698 49.4951 7.83963H50.5524C50.5524 7.75831 50.5524 7.67698 50.5253 7.62276C50.4981 7.56855 50.471 7.48722 50.4439 7.46011C50.3897 7.4059 50.3626 7.37879 50.2813 7.35168C50.1728 7.35168 50.1186 7.32457 50.0373 7.32457ZM51.2572 9.0324V7.1077H51.4469C51.5012 7.1077 51.5283 7.13481 51.5283 7.18903L51.5554 7.4059C51.6367 7.32457 51.7451 7.24325 51.8265 7.18903C51.9349 7.13481 52.0433 7.1077 52.1789 7.1077C52.2873 7.1077 52.3686 7.13481 52.45 7.16192C52.5313 7.18903 52.5855 7.24325 52.6397 7.29746C52.6939 7.35168 52.7481 7.43301 52.7753 7.51433C52.8024 7.59566 52.8295 7.70409 52.8295 7.81252V9.0324H52.5042V7.81252C52.5042 7.67698 52.4771 7.54144 52.3957 7.48722C52.3415 7.4059 52.2331 7.37879 52.0975 7.37879C51.9891 7.37879 51.9078 7.4059 51.8265 7.46011C51.7451 7.51433 51.6638 7.56855 51.5825 7.64987V9.0324H51.2572Z" fill="#383838"/>
</svg>
