<svg width="90" height="29" viewBox="0 0 90 29" fill="none" xmlns="http://www.w3.org/2000/svg">
<rect width="90" height="28.8" rx="6" fill="#F4F5F7"/>
<path d="M11.9566 7.44238C11.8034 7.62122 11.7012 7.87669 11.7012 8.23436V20.8293C11.7012 21.1103 11.7778 21.3402 11.88 21.519L18.88 14.4424L11.9566 7.44238Z" fill="#00C0E3"/>
<path d="M19.1358 14.2134L21.3073 12.0163L13.1832 7.39225C12.8511 7.18787 12.5445 7.16232 12.2891 7.23896L19.1358 14.2134Z" fill="#04D85B"/>
<path d="M19.1385 14.7002L12.1641 21.7768C12.4195 21.9301 12.7772 21.9046 13.1604 21.6747L21.3867 16.9995L19.1385 14.7002Z" fill="#FF033B"/>
<path d="M24.2702 13.7036L21.6133 12.1963L19.3906 14.4445L21.7154 16.7948L24.2702 15.3386C25.0622 14.9043 25.0622 14.1634 24.2702 13.7036Z" fill="#FFCC00"/>
<path d="M47.0002 14.5617C45.5635 14.5617 44.4249 15.646 44.4249 17.137C44.4249 18.628 45.5906 19.7123 47.0002 19.7123C48.437 19.7123 49.5755 18.628 49.5755 17.137C49.5755 15.646 48.437 14.5617 47.0002 14.5617ZM47.0002 18.7093C46.2141 18.7093 45.5364 18.0587 45.5364 17.137C45.5364 16.2153 46.2141 15.5647 47.0002 15.5647C47.7864 15.5647 48.4641 16.1882 48.4641 17.137C48.4641 18.0587 47.7864 18.7093 47.0002 18.7093ZM41.3617 14.5617C39.9249 14.5617 38.7864 15.646 38.7864 17.137C38.7864 18.628 39.952 19.7123 41.3617 19.7123C42.7984 19.7123 43.937 18.628 43.937 17.137C43.937 15.646 42.7984 14.5617 41.3617 14.5617ZM41.3617 18.7093C40.5755 18.7093 39.8978 18.0587 39.8978 17.137C39.8978 16.2153 40.5755 15.5647 41.3617 15.5647C42.1478 15.5647 42.8255 16.1882 42.8255 17.137C42.8255 18.0587 42.1478 18.7093 41.3617 18.7093ZM34.6659 15.375V16.4593H37.2683C37.187 17.0828 36.9972 17.5165 36.6719 17.8418C36.2924 18.2213 35.696 18.6551 34.6659 18.6551C33.0665 18.6551 31.7924 17.3539 31.7924 15.7545C31.7924 14.1551 33.0394 12.8539 34.6659 12.8539C35.5333 12.8539 36.1568 13.2063 36.6448 13.64L37.4038 12.881C36.7532 12.2575 35.8858 11.7695 34.6659 11.7695C32.4701 11.7695 30.5996 13.5587 30.5996 15.7816C30.5996 17.9774 32.443 19.7936 34.6659 19.7936C35.8586 19.7936 36.7532 19.4141 37.458 18.6822C38.19 17.9503 38.4068 16.9472 38.4068 16.134C38.4068 15.89 38.3797 15.646 38.3526 15.4563H34.6659V15.375V15.375ZM62.0725 16.2153C61.8556 15.646 61.205 14.5888 59.8767 14.5888C58.5484 14.5888 57.437 15.6189 57.437 17.1641C57.437 18.6009 58.5213 19.7394 59.9852 19.7394C61.1779 19.7394 61.8556 19.0075 62.1267 18.6009L61.2593 18.0045C60.9611 18.4382 60.5544 18.7093 59.9852 18.7093C59.4159 18.7093 59.0093 18.4382 58.7382 17.9231L62.1809 16.4864L62.0725 16.2153ZM58.5755 17.0828C58.5484 16.0798 59.3346 15.5918 59.9309 15.5918C60.3918 15.5918 60.7713 15.8087 60.8797 16.134L58.5755 17.0828ZM55.7833 19.5768H56.9219V12.0135H55.7833V19.5768ZM53.9129 15.1581H53.8858C53.6418 14.8599 53.1538 14.5888 52.5303 14.5888C51.2562 14.5888 50.0635 15.7274 50.0635 17.1641C50.0635 18.6009 51.2562 19.7394 52.5303 19.7394C53.1538 19.7394 53.6418 19.4683 53.8858 19.143H53.9129V19.5225C53.9129 20.4984 53.3978 21.0406 52.5303 21.0406C51.8255 21.0406 51.4189 20.5527 51.2291 20.1189L50.2532 20.5256C50.5243 21.2033 51.2833 22.0436 52.5303 22.0436C53.8587 22.0436 54.9701 21.2575 54.9701 19.3599V14.7244H53.8858V15.1581H53.9129ZM52.6388 18.7093C51.8526 18.7093 51.202 18.0587 51.202 17.1641C51.202 16.2695 51.8526 15.5918 52.6388 15.5918C53.3978 15.5918 54.0213 16.2424 54.0213 17.1641C53.9942 18.0587 53.3978 18.7093 52.6388 18.7093ZM67.3858 11.9864H64.6749V19.5497H65.8135V16.7033H67.3858C68.6327 16.7033 69.8797 15.8087 69.8797 14.3448C69.8797 12.881 68.6327 11.9864 67.3858 11.9864ZM67.4129 15.646H65.8135V13.0436H67.4129C68.2532 13.0436 68.7412 13.7484 68.7412 14.3448C68.7412 14.9412 68.2532 15.646 67.4129 15.646ZM74.4068 14.5617C73.5936 14.5617 72.7532 14.9141 72.4008 15.7274L73.4038 16.134C73.6207 15.7274 74.0273 15.5918 74.434 15.5918C75.0303 15.5918 75.5996 15.9442 75.6267 16.5677V16.6491C75.4099 16.5406 74.9761 16.3509 74.4611 16.3509C73.3767 16.3509 72.2924 16.9472 72.2924 18.0587C72.2924 19.0617 73.187 19.7123 74.1629 19.7123C74.9219 19.7123 75.3285 19.3599 75.5996 18.9804H75.6267V19.5768H76.7111V16.6762C76.6839 15.3207 75.6809 14.5617 74.4068 14.5617ZM74.2713 18.7093C73.8918 18.7093 73.3767 18.5195 73.3767 18.0587C73.3767 17.4623 74.0273 17.2454 74.5695 17.2454C75.0574 17.2454 75.3014 17.3539 75.5996 17.4894C75.5183 18.2213 74.9219 18.7093 74.2713 18.7093ZM80.6689 14.7244L79.3677 18.0045H79.3406L77.9852 14.7244H76.7653L78.7713 19.3057L77.6328 21.8539H78.7984L81.9159 14.7244H80.6689ZM70.5032 19.5768H71.6418V12.0135H70.5032V19.5768Z" fill="#383838"/>
<path d="M33.5008 8.19163C33.5008 8.4085 33.4737 8.57115 33.3923 8.76091C33.311 8.95067 33.2297 9.0591 33.1213 9.19464C33.0128 9.30308 32.8502 9.41151 32.6875 9.46573C32.5249 9.51994 32.3351 9.57416 32.1454 9.57416H31.1152V6.86331H32.1725C32.3622 6.86331 32.552 6.89043 32.7146 6.97175C32.8773 7.02597 33.0128 7.1344 33.1484 7.24284C33.2568 7.35127 33.3652 7.51392 33.4195 7.67657C33.4737 7.81211 33.5008 8.00187 33.5008 8.19163ZM33.1213 8.19163C33.1213 8.02898 33.0941 7.86633 33.0399 7.73078C32.9857 7.59524 32.9315 7.48681 32.8502 7.40548C32.7688 7.32416 32.6604 7.24283 32.552 7.18862C32.4435 7.1344 32.308 7.10729 32.1454 7.10729H31.4948V9.22175H32.1725C32.308 9.22175 32.4435 9.19464 32.5791 9.14043C32.6875 9.08621 32.796 9.03199 32.8773 8.92356C32.9586 8.84223 33.0128 8.7338 33.067 8.59826C33.0942 8.51693 33.1213 8.38139 33.1213 8.19163ZM34.314 7.64946V9.57416H33.9887V7.64946H34.314ZM34.3954 7.02597C34.3954 7.05308 34.3954 7.08019 34.3682 7.10729C34.3682 7.1344 34.3411 7.16151 34.314 7.18862C34.2869 7.21572 34.2598 7.21573 34.2327 7.24284C34.2056 7.24284 34.1785 7.26994 34.1514 7.26994C34.1243 7.26994 34.0972 7.26994 34.0701 7.24284C34.0429 7.24284 34.0158 7.21572 33.9887 7.18862C33.9616 7.16151 33.9616 7.1344 33.9345 7.10729C33.9345 7.08019 33.9074 7.05308 33.9074 7.02597C33.9074 6.99886 33.9074 6.97175 33.9345 6.94464C33.9345 6.91753 33.9616 6.89042 33.9887 6.86331C34.0158 6.83621 34.0429 6.83621 34.0701 6.8091C34.0972 6.8091 34.1243 6.78199 34.1514 6.78199C34.1785 6.78199 34.2056 6.78199 34.2327 6.8091C34.2598 6.8091 34.2869 6.83621 34.314 6.86331C34.3411 6.89042 34.3411 6.91753 34.3682 6.94464C34.3954 6.97175 34.3954 6.99886 34.3954 7.02597ZM36.0219 7.94765C35.9948 7.97476 35.9948 8.00187 35.9405 8.00187C35.9134 8.00187 35.9134 8.00187 35.8863 7.97476C35.8592 7.94765 35.8321 7.94766 35.805 7.92055C35.7779 7.89344 35.7237 7.89344 35.6695 7.86633C35.6152 7.83922 35.561 7.83922 35.5068 7.83922C35.4526 7.83922 35.3984 7.83922 35.3441 7.86633C35.2899 7.89344 35.2628 7.89344 35.2357 7.92055C35.2086 7.94766 35.1815 7.97476 35.1544 8.00187C35.1273 8.02898 35.1273 8.0832 35.1273 8.11031C35.1273 8.16452 35.1544 8.19163 35.1815 8.24585C35.2086 8.27296 35.2357 8.30007 35.2899 8.32717C35.3442 8.35428 35.3984 8.38139 35.4526 8.38139C35.5068 8.4085 35.561 8.4085 35.6423 8.43561C35.6966 8.46271 35.7779 8.48982 35.8321 8.51693C35.8863 8.54404 35.9405 8.57115 35.9948 8.59826C36.049 8.62537 36.0761 8.67958 36.1032 8.7338C36.1303 8.78802 36.1574 8.84223 36.1574 8.92356C36.1574 9.00488 36.1303 9.08621 36.1032 9.16753C36.0761 9.24886 36.0219 9.30307 35.9676 9.35729C35.9134 9.41151 35.8321 9.46573 35.7508 9.49283C35.6695 9.51994 35.561 9.54705 35.4526 9.54705C35.317 9.54705 35.2086 9.51994 35.1002 9.49283C34.9917 9.43862 34.9104 9.3844 34.8291 9.33019L34.9104 9.19464C34.9104 9.16753 34.9375 9.16753 34.9375 9.16753C34.9375 9.16753 34.9646 9.16753 34.9917 9.16753C35.0188 9.16753 35.046 9.16753 35.0731 9.19464C35.1002 9.22175 35.1273 9.22175 35.1544 9.24886C35.1815 9.27597 35.2357 9.30308 35.2899 9.30308C35.3442 9.33018 35.3984 9.33019 35.4797 9.33019C35.5339 9.33019 35.6152 9.33018 35.6423 9.30308C35.6966 9.27597 35.7237 9.24886 35.7779 9.22175C35.805 9.19464 35.8321 9.16753 35.8592 9.11332C35.8863 9.08621 35.8863 9.03199 35.8863 9.00488C35.8863 8.95067 35.8592 8.89645 35.8321 8.86934C35.805 8.84223 35.7779 8.81512 35.7237 8.78802C35.6695 8.76091 35.6152 8.7338 35.561 8.7338C35.5068 8.70669 35.4526 8.70669 35.3713 8.67958C35.317 8.65247 35.2357 8.62537 35.1815 8.59826C35.1273 8.57115 35.0731 8.54404 35.0188 8.48982C34.9646 8.4356 34.9375 8.4085 34.9104 8.35428C34.8833 8.30006 34.8562 8.21874 34.8562 8.13741C34.8562 8.05609 34.8833 8.00187 34.9104 7.92055C34.9375 7.83922 34.9917 7.785 35.046 7.73078C35.1002 7.67657 35.1815 7.64946 35.2628 7.59524C35.3442 7.56813 35.4526 7.54103 35.561 7.54103C35.6966 7.54103 35.805 7.56813 35.9134 7.59524C36.0219 7.62235 36.1032 7.67657 36.1845 7.75789L36.0219 7.94765ZM36.564 10.2248V7.64946H36.7538C36.808 7.64946 36.8351 7.67657 36.8351 7.73078L36.8622 7.94765C36.9435 7.83922 37.0249 7.7579 37.1333 7.70368C37.2417 7.64946 37.3502 7.62235 37.5128 7.62235C37.6213 7.62235 37.7297 7.64946 37.811 7.67657C37.8923 7.73079 37.9737 7.785 38.0279 7.86633C38.0821 7.94765 38.1363 8.05609 38.1634 8.16452C38.1905 8.27296 38.2176 8.43561 38.2176 8.59826C38.2176 8.7338 38.1905 8.86934 38.1634 9.00488C38.1363 9.11332 38.0821 9.22175 38.0008 9.33019C37.9195 9.41151 37.8381 9.49284 37.7297 9.54705C37.6213 9.60127 37.5128 9.62838 37.3773 9.62838C37.2688 9.62838 37.1604 9.60127 37.0791 9.57416C36.9978 9.54705 36.9164 9.49284 36.8622 9.41151V10.2519H36.564V10.2248ZM37.4315 7.86633C37.3231 7.86633 37.2146 7.89344 37.1333 7.94765C37.052 8.00187 36.9707 8.0832 36.9164 8.16452V9.08621C36.9707 9.16753 37.052 9.22175 37.1062 9.27597C37.1875 9.30308 37.2688 9.33019 37.3502 9.33019C37.5399 9.33019 37.6755 9.27597 37.7568 9.14043C37.8652 9.00488 37.8923 8.84223 37.8923 8.59826C37.8923 8.46272 37.8923 8.35428 37.8652 8.27295C37.8381 8.19163 37.811 8.11031 37.7839 8.05609C37.7297 8.00187 37.7026 7.94766 37.6213 7.92055C37.567 7.89344 37.5128 7.86633 37.4315 7.86633ZM39.4375 7.62235C39.5731 7.62235 39.7086 7.64946 39.817 7.70368C39.9255 7.7579 40.0339 7.81211 40.1152 7.89344C40.1966 7.97476 40.2508 8.0832 40.305 8.21874C40.3592 8.32717 40.3592 8.46271 40.3592 8.62536C40.3592 8.78801 40.3321 8.92356 40.305 9.03199C40.2508 9.14042 40.1966 9.24886 40.1152 9.33019C40.0339 9.41151 39.9526 9.49284 39.817 9.51994C39.7086 9.57416 39.5731 9.60127 39.4375 9.60127C39.302 9.60127 39.1664 9.57416 39.058 9.51994C38.9496 9.46573 38.8411 9.41151 38.7598 9.33019C38.6785 9.24886 38.6243 9.14042 38.5701 9.03199C38.5158 8.92356 38.5158 8.76091 38.5158 8.62536C38.5158 8.46271 38.5429 8.32717 38.5701 8.21874C38.6243 8.0832 38.6785 8.00187 38.7598 7.89344C38.8411 7.81211 38.9225 7.73079 39.058 7.70368C39.1664 7.62235 39.302 7.62235 39.4375 7.62235ZM39.4375 9.33019C39.6273 9.33019 39.7628 9.27597 39.8713 9.14043C39.9526 9.00488 40.0068 8.84223 40.0068 8.59826C40.0068 8.38139 39.9526 8.19163 39.8713 8.05609C39.7899 7.92055 39.6273 7.86633 39.4375 7.86633C39.3291 7.86633 39.2478 7.89344 39.1935 7.92055C39.1122 7.94766 39.058 8.00187 39.0038 8.05609C38.9496 8.11031 38.9225 8.19163 38.8954 8.27295C38.8682 8.35428 38.8682 8.46271 38.8682 8.57115C38.8682 8.67958 38.8682 8.78802 38.8954 8.86934C38.9225 8.95067 38.9496 9.03199 39.0038 9.08621C39.058 9.14042 39.1122 9.19464 39.1935 9.22175C39.2478 9.30307 39.3562 9.33019 39.4375 9.33019ZM40.7658 9.57416V7.64946H40.9556C41.0098 7.64946 41.0369 7.67657 41.0369 7.73078L41.064 7.94765C41.1454 7.86633 41.2538 7.785 41.3351 7.73078C41.4435 7.67657 41.552 7.64946 41.6875 7.64946C41.796 7.64946 41.8773 7.67657 41.9586 7.70368C42.0399 7.73079 42.0942 7.785 42.1484 7.83922C42.2026 7.89344 42.2568 7.97476 42.2839 8.05609C42.311 8.13741 42.3381 8.24585 42.3381 8.35428V9.57416H42.0128V8.35428C42.0128 8.21874 41.9857 8.0832 41.9044 8.02898C41.8502 7.94765 41.7417 7.92055 41.6062 7.92055C41.4978 7.92055 41.4164 7.94765 41.3351 8.00187C41.2538 8.05609 41.1725 8.11031 41.0911 8.19163V9.60127H40.7658V9.57416ZM43.2598 7.64946V9.57416H42.9345V7.64946H43.2598ZM43.3411 7.02597C43.3411 7.05308 43.3411 7.08019 43.314 7.10729C43.314 7.1344 43.2869 7.16151 43.2598 7.18862C43.2327 7.21572 43.2056 7.21573 43.1785 7.24284C43.1514 7.24284 43.1243 7.26994 43.0972 7.26994C43.0701 7.26994 43.0429 7.26994 43.0158 7.24284C42.9887 7.24284 42.9616 7.21572 42.9345 7.18862C42.9074 7.16151 42.9074 7.1344 42.8803 7.10729C42.8803 7.08019 42.8532 7.05308 42.8532 7.02597C42.8532 6.99886 42.8532 6.97175 42.8803 6.94464C42.8803 6.91753 42.9074 6.89042 42.9345 6.86331C42.9616 6.83621 42.9887 6.83621 43.0158 6.8091C43.0429 6.8091 43.0701 6.78199 43.0972 6.78199C43.1243 6.78199 43.1514 6.78199 43.1785 6.8091C43.2056 6.8091 43.2327 6.83621 43.2598 6.86331C43.2869 6.89042 43.2869 6.91753 43.314 6.94464C43.314 6.97175 43.3411 6.99886 43.3411 7.02597ZM43.8562 9.57416V6.78199H44.2086V7.92055C44.2899 7.83922 44.3713 7.7579 44.4797 7.70368C44.5881 7.64946 44.6966 7.62235 44.8321 7.62235C44.9405 7.62235 45.049 7.64946 45.1303 7.67657C45.2116 7.73079 45.2929 7.785 45.3472 7.86633C45.4014 7.94765 45.4556 8.05609 45.4827 8.16452C45.5098 8.27296 45.5369 8.43561 45.5369 8.59826C45.5369 8.7338 45.5098 8.86934 45.4827 9.00488C45.4556 9.11332 45.4014 9.22175 45.3201 9.33019C45.2387 9.41151 45.1574 9.49284 45.049 9.54705C44.9405 9.60127 44.8321 9.62838 44.6966 9.62838C44.561 9.62838 44.4797 9.60127 44.3713 9.54705C44.2899 9.49284 44.2086 9.43862 44.1544 9.35729L44.1273 9.51994C44.1273 9.57416 44.1002 9.60127 44.046 9.60127H43.8562V9.57416ZM44.7237 7.86633C44.6152 7.86633 44.5068 7.89344 44.4255 7.94765C44.3441 8.00187 44.2628 8.0832 44.2086 8.16452V9.08621C44.2628 9.16753 44.3442 9.22175 44.3984 9.27597C44.4797 9.30308 44.561 9.33019 44.6423 9.33019C44.8321 9.33019 44.9676 9.27597 45.049 9.14043C45.1574 9.00488 45.1845 8.84223 45.1845 8.59826C45.1845 8.46272 45.1845 8.35428 45.1574 8.27295C45.1303 8.19163 45.1032 8.11031 45.0761 8.05609C45.0219 8.00187 44.9948 7.94766 44.9134 7.92055C44.8592 7.89344 44.805 7.86633 44.7237 7.86633ZM46.3502 6.75488V9.54705H45.9978V6.75488H46.3502ZM47.7056 7.62235C47.814 7.62235 47.9225 7.64946 48.0309 7.67657C48.1393 7.70368 48.2207 7.7579 48.2749 7.83922C48.3562 7.92055 48.4104 8.00187 48.4375 8.11031C48.4646 8.21874 48.4917 8.32717 48.4917 8.46272C48.4917 8.51693 48.4917 8.54404 48.4646 8.57115C48.4646 8.59826 48.4375 8.59826 48.4104 8.59826H47.1363C47.1363 8.70669 47.1634 8.81512 47.1905 8.92356C47.2176 9.03199 47.2719 9.08621 47.3261 9.14043C47.3803 9.19464 47.4345 9.24886 47.5158 9.27597C47.5972 9.30308 47.6785 9.33019 47.7598 9.33019C47.8411 9.33019 47.9225 9.33018 47.9767 9.30308C48.0309 9.27597 48.0851 9.24886 48.1393 9.24886C48.1935 9.24886 48.2207 9.19464 48.2478 9.19464C48.2749 9.16753 48.302 9.16753 48.3291 9.16753C48.3562 9.16753 48.3833 9.16753 48.3833 9.19464L48.4917 9.33019C48.4375 9.3844 48.4104 9.43862 48.3291 9.46573C48.2749 9.49284 48.2207 9.51995 48.1393 9.54705C48.0851 9.57416 48.0038 9.60127 47.9225 9.60127C47.8411 9.60127 47.7869 9.62838 47.7056 9.62838C47.5701 9.62838 47.4616 9.60127 47.3261 9.57416C47.2176 9.51994 47.1092 9.46573 47.0279 9.3844C46.9466 9.30308 46.8923 9.19464 46.8381 9.0591C46.7839 8.92356 46.7568 8.78801 46.7568 8.62536C46.7568 8.48982 46.7839 8.35428 46.811 8.24585C46.8652 8.13741 46.9194 8.02898 47.0008 7.94765C47.0821 7.86633 47.1634 7.785 47.2719 7.75789C47.4345 7.62235 47.5701 7.62235 47.7056 7.62235ZM47.7056 7.86633C47.5429 7.86633 47.4074 7.92054 47.3261 8.00187C47.2447 8.08319 47.1634 8.21874 47.1634 8.38139H48.2207C48.2207 8.30006 48.2207 8.21874 48.1935 8.16452C48.1664 8.1103 48.1393 8.02898 48.1122 8.00187C48.058 7.94765 48.0309 7.92055 47.9496 7.89344C47.8682 7.86633 47.7869 7.86633 47.7056 7.86633ZM50.4164 7.62235C50.5249 7.62235 50.6333 7.64946 50.7417 7.67657C50.8502 7.70368 50.9315 7.7579 50.9857 7.83922C51.067 7.92055 51.1213 8.00187 51.1484 8.11031C51.1755 8.21874 51.2026 8.32717 51.2026 8.46272C51.2026 8.51693 51.2026 8.54404 51.1755 8.57115C51.1755 8.59826 51.1484 8.59826 51.1213 8.59826H49.8472C49.8472 8.70669 49.8743 8.81512 49.9014 8.92356C49.9285 9.03199 49.9827 9.08621 50.0369 9.14043C50.0911 9.19464 50.1454 9.24886 50.2267 9.27597C50.308 9.30308 50.3893 9.33019 50.4707 9.33019C50.552 9.33019 50.6333 9.33018 50.6875 9.30308C50.7417 9.27597 50.796 9.24886 50.8502 9.24886C50.9044 9.22175 50.9315 9.19464 50.9586 9.19464C50.9857 9.16753 51.0128 9.16753 51.0399 9.16753C51.067 9.16753 51.0941 9.16753 51.0941 9.19464L51.2026 9.33019C51.1484 9.3844 51.1213 9.43862 51.0399 9.46573C50.9857 9.49284 50.9315 9.51995 50.8502 9.54705C50.796 9.57416 50.7146 9.60127 50.6333 9.60127C50.552 9.60127 50.4978 9.62838 50.4164 9.62838C50.2809 9.62838 50.1725 9.60127 50.0369 9.57416C49.9285 9.51994 49.8201 9.46573 49.7387 9.3844C49.6574 9.30308 49.6032 9.19464 49.549 9.0591C49.4948 8.92356 49.4676 8.78801 49.4676 8.62536C49.4676 8.48982 49.4948 8.35428 49.5219 8.24585C49.5761 8.13741 49.6303 8.02898 49.7116 7.94765C49.7929 7.86633 49.8743 7.785 49.9827 7.75789C50.1725 7.62235 50.2809 7.62235 50.4164 7.62235ZM50.4435 7.86633C50.2809 7.86633 50.1454 7.92054 50.064 8.00187C49.9827 8.08319 49.9014 8.21874 49.9014 8.38139H50.9586C50.9586 8.30006 50.9586 8.21874 50.9315 8.16452C50.9044 8.1103 50.8773 8.02898 50.8502 8.00187C50.796 7.94765 50.7688 7.92055 50.6875 7.89344C50.5791 7.86633 50.5249 7.86633 50.4435 7.86633ZM51.6634 9.57416V7.64946H51.8532C51.9074 7.64946 51.9345 7.67657 51.9345 7.73078L51.9616 7.94765C52.0429 7.86633 52.1514 7.785 52.2327 7.73078C52.3411 7.67657 52.4496 7.64946 52.5851 7.64946C52.6935 7.64946 52.7749 7.67657 52.8562 7.70368C52.9375 7.73079 52.9917 7.785 53.046 7.83922C53.1002 7.89344 53.1544 7.97476 53.1815 8.05609C53.2086 8.13741 53.2357 8.24585 53.2357 8.35428V9.57416H52.9104V8.35428C52.9104 8.21874 52.8833 8.0832 52.802 8.02898C52.7478 7.94765 52.6393 7.92055 52.5038 7.92055C52.3954 7.92055 52.314 7.94765 52.2327 8.00187C52.1514 8.05609 52.0701 8.11031 51.9887 8.19163V9.60127H51.6634V9.57416Z" fill="#383838"/>
</svg>
